<?xml version="1.0" encoding="UTF-8" standalone="no"?>
<svg
   xmlns:dc="http://purl.org/dc/elements/1.1/"
   xmlns:cc="http://creativecommons.org/ns#"
   xmlns:rdf="http://www.w3.org/1999/02/22-rdf-syntax-ns#"
   xmlns:svg="http://www.w3.org/2000/svg"
   xmlns="http://www.w3.org/2000/svg"
   xmlns:sodipodi="http://sodipodi.sourceforge.net/DTD/sodipodi-0.dtd"
   xmlns:inkscape="http://www.inkscape.org/namespaces/inkscape"
   version="1.1"
   id="svg2"
   width="85.333336"
   height="85.333336"
   viewBox="0 0 85.333336 85.333336"
   sodipodi:docname="busd.svg"
   inkscape:version="1.0.2 (e86c870879, 2021-01-15)">
  <metadata
     id="metadata8">
    <rdf:RDF>
      <cc:Work
         rdf:about="">
        <dc:format>image/svg+xml</dc:format>
        <dc:type
           rdf:resource="http://purl.org/dc/dcmitype/StillImage" />
        <dc:title></dc:title>
      </cc:Work>
    </rdf:RDF>
  </metadata>
  <defs
     id="defs6" />
  <sodipodi:namedview
     pagecolor="#ffffff"
     bordercolor="#666666"
     borderopacity="1"
     objecttolerance="10"
     gridtolerance="10"
     guidetolerance="10"
     inkscape:pageopacity="0"
     inkscape:pageshadow="2"
     inkscape:window-width="2518"
     inkscape:window-height="1386"
     id="namedview4"
     showgrid="false"
     inkscape:zoom="11.313709"
     inkscape:cx="19.87613"
     inkscape:cy="43.795931"
     inkscape:window-x="42"
     inkscape:window-y="54"
     inkscape:window-maximized="0"
     inkscape:current-layer="g10" />
  <g
     inkscape:groupmode="layer"
     inkscape:label="Image"
     id="g10">
    <path
       style="fill:#efb90e;stroke-width:0.333333"
       d="M 36.000001,84.807059 C 30.091189,83.857916 23.858857,81.375223 18.666667,77.902196 15.454675,75.753712 9.5796223,69.878662 7.4311396,66.666669 c -9.8525861,-14.729664 -9.8525861,-33.270338 0,-48.000002 2.1484827,-3.211992 8.0235354,-9.0870447 11.2355274,-11.2355274 14.729664,-9.8525861 33.270338,-9.8525861 48.000002,0 3.211993,2.1484827 9.087043,8.0235354 11.235527,11.2355274 9.852587,14.729664 9.852587,33.270338 0,48.000002 -2.148484,3.211993 -8.023534,9.087043 -11.235527,11.235527 -4.639774,3.10352 -9.568004,5.228043 -15.000001,6.466397 -3.935497,0.89719 -11.493983,1.10873 -15.666667,0.438466 z M 57.077448,57.418668 c 7.661091,-7.653066 14.018724,-14.19655 14.128071,-14.541073 0.149997,-0.4726 -0.526073,-1.358547 -2.75335,-3.6081 -1.623694,-1.63993 -3.235234,-3.137731 -3.581204,-3.328447 -0.549366,-0.302837 -2.438583,1.462427 -14.916667,13.93798 -7.858197,7.856604 -14.28763,14.418901 -14.28763,14.582881 0,0.52442 6.437893,6.871427 6.969823,6.871427 0.281437,0 6.779867,-6.261601 14.440957,-13.914668 z M 46.248548,46.251471 C 53.995182,38.506448 60.333335,31.934525 60.333335,31.6472 c 0,-0.287325 -1.508173,-2.004161 -3.351497,-3.815191 L 53.630342,24.539228 39.315171,38.851495 c -7.873344,7.871746 -14.31517,14.547787 -14.31517,14.835647 0,0.63879 6.059332,6.646193 6.703646,6.646193 0.253062,0 6.798268,-6.336837 14.544901,-14.081864 z m -21.837844,0.17145 c 1.79078,-1.78406 3.255964,-3.474373 3.255964,-3.756253 0,-0.28188 -1.480798,-1.987747 -3.290661,-3.79082 -2.804224,-2.793704 -3.383198,-3.228254 -3.916666,-2.93967 C 19.481212,36.465301 14,42.195371 14,42.688785 c 0,0.493823 6.361196,6.977883 6.845663,6.977883 0.169993,0 1.774261,-1.459686 3.565041,-3.243747 z M 40.954905,29.878456 c 7.613707,-7.617776 8.73824,-8.87191 8.443563,-9.416667 C 48.866425,19.478223 43.137768,14 42.641285,14 c -0.477574,0 -17.127868,16.421045 -17.69503,17.451395 -0.289184,0.525354 0.154563,1.112838 2.958392,3.916666 1.814233,1.814233 3.516436,3.298607 3.782672,3.298607 0.266236,0 4.436649,-3.954697 9.267586,-8.788212 z"
       id="path14" />
  </g>
</svg>
